<?xml version="1.0" encoding="UTF-8" standalone="no"?>
<!DOCTYPE svg PUBLIC "-//W3C//DTD SVG 1.1//EN" "http://www.w3.org/Graphics/SVG/1.1/DTD/svg11.dtd">
<!-- Created with Vectornator (http://vectornator.io/) -->
<svg height="100%" stroke-miterlimit="10" style="fill-rule:nonzero;clip-rule:evenodd;stroke-linecap:round;stroke-linejoin:round;" version="1.1" viewBox="0 0 39154.2 45586.8" width="100%" xml:space="preserve" xmlns="http://www.w3.org/2000/svg" xmlns:vectornator="http://vectornator.io" xmlns:xlink="http://www.w3.org/1999/xlink">
<defs>
<clipPath id="TextBounds">
<rect height="9200.46" width="4457.41" x="10931.8" y="15127.6"/>
</clipPath>
<clipPath id="TextBounds_2">
<rect height="9200.46" width="4457.41" x="16375" y="38235.6"/>
</clipPath>
</defs>
<g id="Layer_x0020_1" vectornator:layerName="Layer_x0020_1">
<path d="M38507.8 33396.3L396.9 33396.3L10146.5 601.02L38507.8 33396.3Z" fill="#ffebd6" fill-rule="evenodd" opacity="1" stroke="#000000" stroke-linecap="butt" stroke-linejoin="miter" stroke-width="590.508"/>
<path d="M10086.9 623.7L11374 3195.05L8802.67 3195.05L10086.9 623.7ZM9970.69 30980.9L9970.69 3058.97L10206 3058.97L10206 30980.9L9970.69 30980.9ZM10086.9 33416.1L8802.67 30847.6L11374 30847.6L10086.9 33416.1Z" fill="#000000" fill-rule="evenodd" opacity="1" stroke="none"/>
<path clip-path="url(#TextBounds)" d="M11463.3 22368.2L11463.3 16642L12166.4 16642L12166.4 18696.5C12494.5 18316.4 12908.5 18126.3 13408.5 18126.3C13715.8 18126.3 13982.7 18186.8 14209.2 18307.9C14435.8 18429 14597.9 18596.3 14695.5 18809.8C14793.2 19023.3 14842 19333.2 14842 19739.4L14842 22368.2L14138.9 22368.2L14138.9 19739.4C14138.9 19387.9 14062.7 19132 13910.4 18971.9C13758.1 18811.8 13542.6 18731.7 13264 18731.7C13055.7 18731.7 12859.7 18785.7 12676.1 18893.8C12492.5 19001.8 12361.7 19148.3 12283.6 19333.2C12205.5 19518.1 12166.4 19773.3 12166.4 20098.8L12166.4 22368.2L11463.3 22368.2Z" fill="#000000" fill-rule="evenodd" opacity="1" stroke="none"/>
<g opacity="1">
<path clip-path="url(#TextBounds_2)" d="M17554.9 45476.2L16902.6 45476.2L16902.6 39750.1L17605.7 39750.1L17605.7 41792.9C17902.5 41420.5 18281.4 41234.3 18742.3 41234.3C18997.5 41234.3 19239 41285.8 19466.9 41388.6C19694.7 41491.5 19882.2 41636 20029.3 41822.2C20176.5 42008.4 20291.7 42233 20375 42496C20458.4 42759 20500 43040.2 20500 43339.7C20500 44050.6 20324.2 44600 19972.7 44988C19621.2 45376 19199.3 45570 18707.2 45570C18217.6 45570 17833.5 45365.6 17554.9 44956.7L17554.9 45476.2ZM17547.1 43370.9C17547.1 43868.3 17614.8 44227.6 17750.2 44449C17971.5 44810.9 18271 44991.9 18648.6 44991.9C18955.9 44991.9 19221.5 44858.4 19445.4 44591.5C19669.3 44324.6 19781.3 43926.9 19781.3 43398.3C19781.3 42856.6 19673.9 42456.9 19459.1 42199.1C19244.2 41941.3 18984.5 41812.4 18679.8 41812.4C18372.6 41812.4 18107 41945.9 17883 42212.8C17659.1 42479.7 17547.1 42865.7 17547.1 43370.9Z" fill="#000000" fill-rule="evenodd" opacity="1" stroke="none"/>
<path d="M221.13 36424.1L2792.47 35139.8L2792.47 37711.2L221.13 36424.1ZM35933.6 36543.2L2659.23 36543.2L2659.23 36307.8L35933.6 36307.8L35933.6 36543.2ZM38368.9 36424.1L35797.5 37711.2L35797.5 35139.8L38368.9 36424.1Z" fill="#000000" fill-rule="evenodd" opacity="1" stroke="none"/>
</g>
</g>
</svg>
